<svg class="canvas" version="1.1" xmlns="http://www.w3.org/2000/svg" xmlns:xlink="http://www.w3.org/1999/xlink" width="100%" height="100%">
    <g transform="translate(0, 0) scale(2)">
        <g class="logo-entity-inner">
            <g class="[object Object]" data-noun-id="2247063" data-attribution="" transform="scale(0.2254868390774858)">
                <g>
                    <ellipse transform="translate(-100.41910552978516,-40)" cx="255.9999847" cy="225.2911682" rx="38.768631" ry="38.7687683" fill="white"></ellipse>
                    <path
                        d="M387.2362061,455.5825195c-0.0149536-0.3825684-0.0414429-0.7729492-0.0714111-1.1665039   c-0.0392456-0.4802246-0.0842285-0.9638672-0.1519165-1.4443359c-0.0599976-0.4460449-0.1292114-0.8549805-0.2024536-1.263916   c-0.0806274-0.4350586-0.1668701-0.8664551-0.2701416-1.2940674c-0.1048584-0.446167-0.2213135-0.8850098-0.3469849-1.3201904   c-0.1086426-0.3676758-0.2286987-0.7614746-0.3599854-1.144043c-0.1594849-0.46875-0.326355-0.9189453-0.5044556-1.3614502   c-0.1312256-0.3302002-0.281311-0.6789551-0.4387817-1.0241699c-0.2062988-0.4611816-0.4164429-0.8963623-0.6395264-1.3276367   c-0.1783447-0.3450928-0.3526001-0.6639404-0.536499-0.982666c-0.2493286-0.4351807-0.4932251-0.8364258-0.7463379-1.2304688   c-0.2175293-0.3337402-0.4408569-0.6674805-0.6733398-0.9938965c-0.1326294-0.1851807-0.2749023-0.3675537-0.4126587-0.5518799   c-2.3342896-1.7570801-13.7979126-9.8029785-32.3303223-13.3862305l0.0001831-0.0009766l-49.118042-9.4962158h-88.8670654   l-49.1182861,9.4962158l0.0002441,0.0009766c-18.7093506,3.6181641-30.0137329,11.6195068-32.3198242,13.3739014   c-0.1420288,0.1894531-0.2858276,0.3731689-0.4249268,0.5679932c-0.2307129,0.3226318-0.4538574,0.6563721-0.6733398,0.9938965   c-0.2513428,0.3902588-0.4950562,0.7915039-0.7275391,1.2001953c-0.2007446,0.3452148-0.3752441,0.6640625-0.5438843,0.9941406   c-0.2325439,0.4462891-0.442627,0.8814697-0.6415405,1.3240967c-0.164856,0.3637695-0.3149414,0.7125244-0.4573975,1.0689697   c-0.1671143,0.4162598-0.3339844,0.8664551-0.4876709,1.3164062c-0.1368408,0.4013672-0.256897,0.795166-0.3713989,1.1853027   c-0.1200562,0.4089355-0.2363281,0.8515625-0.3393555,1.2902832c-0.1050415,0.4388428-0.1912842,0.8703613-0.2701416,1.3052979   c-0.0767822,0.4088135-0.1444702,0.8101807-0.1989136,1.2227783c-0.072998,0.5212402-0.118042,1.0053711-0.1574707,1.4892578   c-0.0300293,0.3859863-0.0562134,0.7763672-0.071228,1.1777344c-0.0187988,0.494873-0.0150146,1.0126953-0.0056152,1.5339355   c0.0018311,0.0861816-0.00177,0.5439453-0.0037842,0.630127l0.0526123,0.607666   c0.0300293,0.4277344,0.0786133,0.8964844,0.1369019,1.3730469c0.0579834,0.4987793,0.1218262,0.9750977,0.2024536,1.4438477   c0.0168457,0.0976562,0.0712891,0.4838867,0.0824585,0.5849609l0.1462402,0.5515137   c0.1165161,0.5288086,0.2363281,1.0388184,0.3770142,1.541748c0.1070557,0.3823242,0.2195435,0.7351074,0.3357544,1.0913086   c0.1574707,0.4763184,0.3225708,0.9526367,0.5044556,1.4140625c0.1594849,0.4089355,0.3095703,0.7614746,0.467041,1.1179199   c0.1931152,0.4350586,0.3920288,0.8549805,0.6000977,1.2675781c0.1969604,0.3864746,0.395813,0.7541504,0.6021118,1.1103516   c0.2287598,0.4050293,0.446228,0.7651367,0.6713257,1.1213379c0.2513428,0.3977051,0.5026855,0.7651367,0.7631836,1.1328125   c0.2250977,0.3188477,0.467041,0.6452637,0.7201538,0.9677734c0.2813721,0.3562012,0.5720825,0.7126465,0.8740845,1.0615234   c0.2775269,0.3225098,0.5588379,0.6298828,0.8475952,0.9377441c0.2963257,0.3112793,0.605896,0.6188965,0.9228516,0.9226074   c0.305542,0.2927246,0.630127,0.5852051,0.9620972,0.8703613c0.303772,0.2624512,0.6130981,0.5251465,0.9300537,0.7763672   c0.3751831,0.2924805,0.7539673,0.5773926,1.1422119,0.8513184c0.3113403,0.2214355,0.6132812,0.4277344,0.9208374,0.6264648   c0.4293823,0.2739258,0.8532104,0.5327148,1.286438,0.7839355c0.3207397,0.1838379,0.6321411,0.348877,0.9470825,0.513916   c0.4313965,0.2250977,0.887207,0.4462891,1.3484497,0.652832c0.3339844,0.1496582,0.6583252,0.2885742,0.982666,0.4199219   c0.5026855,0.2023926,0.9603271,0.3713379,1.4235229,0.5288086c0.3602295,0.1201172,0.7463989,0.2402344,1.1345825,0.3564453   c0.4146729,0.1201172,0.8684692,0.2363281,1.3278809,0.3486328c0.4482422,0.1049805,0.8852539,0.1875,1.3240356,0.2739258   c0.3299561,0.0598145,0.7501831,0.1311035,1.1777954,0.1875c0.5062256,0.0673828,0.9977417,0.1162109,1.4889526,0.1574707   c0.3790283,0.0300293,0.7766113,0.0563965,1.1798096,0.0712891c0.4818115,0.0148926,1.0164795,0.0148926,1.5527344,0.0039062   c0.0788574,0,0.5215454,0.0036621,0.5963135,0.0036621l102.5516968-11.8676758   c0.4387817-0.0527344,0.8852539-0.0527344,1.3240356,0l102.8704224,11.9013672   c-0.00354-0.0073242,0.1312866-0.0112305,0.3208008-0.0112305c0.2139282,0,0.5532837,0.0073242,0.8045654,0.0224609   c0.6207275-0.0073242,1.472168-0.0598145,2.3123779-0.1386719c0.0562134-0.0075684,0.5044556-0.0712891,0.5588989-0.0788574   c0.6395264-0.0712891,1.2507935-0.1535645,1.8566895-0.2700195l0.5606689-0.1237793   c0.8196411-0.1875,1.3108521-0.3037109,1.7947388-0.4389648c0.3395996-0.097168,0.6694946-0.2060547,1.0014648-0.3149414   c0.4408569-0.1464844,0.8646851-0.2927246,1.2790527-0.4501953c0.324585-0.1274414,0.6789551-0.2700195,1.0297241-0.4238281   c0.4182129-0.1838379,0.8120117-0.3674316,1.2002563-0.5588379c0.3131104-0.1538086,0.65448-0.326416,0.9902344-0.5063477   c0.3449707-0.1914062,0.7201538-0.4125977,1.0933838-0.6452637c0.3599243-0.213623,0.6450806-0.3825684,0.9226074-0.5700684   c0.4050293-0.2700195,0.7669678-0.5400391,1.1310425-0.8100586l0.7893066-0.5852051   c0.4838867-0.3862305,0.9302979-0.7839355,1.3711548-1.1889648c0.0411987-0.0375977,0.3037109-0.2739258,0.3449097-0.3076172   c1.2752686-1.2114258,2.3574219-2.4528809,3.3082886-3.7695312l0.2324829-0.3525391   c0.3619995-0.5178223,0.7333984-1.0766602,1.0783691-1.657959l0.1895142-0.3452148   c0.0131836-0.0222168,0.1912842-0.3525391,0.2044678-0.3786621c0.2493286-0.4538574,0.5024414-0.9077148,0.7276001-1.3842773   l0.2963257-0.6674805c0.0037842-0.0112305,0.1463013-0.3452148,0.1518555-0.3525391   c0.1818848-0.4313965,0.3487549-0.8178711,0.4970703-1.2189941c0.1368408-0.3674316,0.258728-0.7539062,0.3825684-1.1403809   c0.1369019-0.4277344,0.258728-0.8212891,0.3694458-1.2226562c0.1050415-0.3901367,0.1988525-0.8100586,0.2924805-1.237793   c0.0168457-0.0749512,0.1239014-0.5102539,0.1424561-0.5849609c0.0132446-0.1015625,0.0733032-0.5065918,0.0921021-0.6079102   c0.0786133-0.4726562,0.1480713-0.9602051,0.2062988-1.4589844c0.0524292-0.4501953,0.0974121-0.8925781,0.1274414-1.331543   c0.0056152-0.0976562,0.0450439-0.4951172,0.0562134-0.5927734l-0.0073853-0.6298828   C387.2512207,456.6140137,387.2548218,456.0961914,387.2362061,455.5825195z"
                        transform="translate(-100.41910552978516,-40)"
                        fill="white"
                    ></path>
                    <path
                        d="M387.4611816,405.7150879c-0.7332153-0.1276855-1.4347534-0.3974609-2.0648804-0.7915039   c-7.5859985-4.7561035-26.0702515-22.3249512-35.9818115-32.8310547c-0.442627-0.46875-0.8025513-1.0053711-1.0651245-1.5939941   c-2.1642456-4.8123779-6.1382446-17.456543-10.727356-32.25354c-16.1998901-52.2266846-21.4867554-67.2823486-35.361084-67.2823486   h-45.0250854c-0.2307129,0-0.4576416,0.0223389-0.6845703,0.0373535c-0.2831421,0.026123-0.6881104,0.0300293-0.9714966,0.0112305   c-0.3581543-0.0262451-0.585083-0.048584-0.8157959-0.048584h-45.0249023   c-13.8743286,0-19.1611938,15.0556641-35.361084,67.2823486c-4.5890503,14.7969971-8.5630493,27.4411621-10.727356,32.25354   c-0.2625122,0.588623-0.6227417,1.1252441-1.0653076,1.5939941c-9.9115601,10.5061035-28.3956299,28.0749512-35.9818115,32.8310547   c-0.630127,0.394043-1.3314819,0.6638184-2.0648193,0.7915039c-4.8610229,0.8515625-8.6699219,4.5197754-9.7032471,9.347168   c-1.3917236,6.4963379,2.7605591,12.9178467,9.257019,14.3093262c0.4229126,0.0910645,0.9000244,0.1799316,1.4145508,0.25354   c4.057312-2.7352295,11.8762817-7.3153076,23.0205078-10.8551025c0.0288696-0.0236816,0.043457-0.0577393,0.0727539-0.0808105   c9.0283203-7.1341553,20.0858765-17.7302246,32.8630371-31.4921875c0.5006714-0.5400391,5.2774658-6.5712891,19.5249634-52.0913086   c0.7914429-2.5280762,3.2050171-4.15625,5.8531494-4.0285645c2.6463013,0.161377,4.838623,2.1079102,5.3130493,4.7186279   c2.8226318,15.4796143,3.2820435,37.887085,3.6196289,54.2484131c0.125,6.0893555,0.2481689,11.9128418,0.4746704,16.0270996   h79.5023193c0.2264404-4.1142578,0.3498535-9.9377441,0.4746094-16.0270996   c0.3377686-16.3613281,0.7972412-38.7687988,3.6196289-54.2484131c0.4744263-2.6107178,2.6669312-4.557251,5.3130493-4.7186279   c2.6499023-0.1387939,5.0617065,1.5004883,5.8533325,4.0285645c14.2531128,45.5386963,19.0278931,51.5551758,19.5267334,52.0913086   c12.762207,13.7469482,23.8179321,24.3430176,32.8610229,31.4921875c0.0293579,0.0230713,0.0444336,0.057373,0.0732422,0.0810547   c11.1435547,3.5397949,18.9629517,8.119873,23.0205078,10.8551025c0.5127563-0.0732422,0.9873657-0.1607666,1.4049072-0.25   c6.5058594-1.3952637,10.657959-7.8167725,9.2664795-14.3131104   C396.1312866,410.2348633,392.3221436,406.5666504,387.4611816,405.7150879z"
                        transform="translate(-100.41910552978516,-40)"
                        fill="white"
                    ></path>
                    <path
                        d="M410.5200195,119.296875C380.0263672,70.3847656,320.8178711,40,256,40s-124.0263672,30.3847656-154.5200195,79.296875   c-2.0454102,3.2802734-1.0439453,7.5976562,2.2368164,9.6435547c3.2802734,2.0439453,7.5986328,1.0439453,9.6430664-2.2373047   C141.3183594,81.8583984,195.9746094,54,256,54s114.6816406,27.8583984,142.6401367,72.703125   c1.3271484,2.1289062,3.6103516,3.2978516,5.9467773,3.2978516c1.2641602,0,2.5444336-0.3427734,3.6962891-1.0605469   C411.5639648,126.8945312,412.5654297,122.5771484,410.5200195,119.296875z"
                        transform="translate(-100.41910552978516,-40)"
                        fill="white"
                    ></path>
                    <path
                        d="M351.7202148,156.078125c1.3266602,2.1289062,3.6103516,3.2978516,5.9467773,3.2978516   c1.2641602,0,2.5444336-0.3427734,3.6962891-1.0605469c3.2807617-2.0458984,4.2822266-6.3632812,2.2368164-9.6435547   C342.3359375,114.5634766,301.105957,93.375,256,93.375s-86.3359375,21.1884766-107.6000977,55.296875   c-2.0454102,3.2802734-1.0439453,7.5976562,2.2368164,9.6435547c3.2802734,2.0439453,7.5986328,1.0439453,9.6430664-2.2373047   C179.0087891,126.0371094,215.6865234,107.375,256,107.375S332.9912109,126.0371094,351.7202148,156.078125z"
                        transform="translate(-100.41910552978516,-40)"
                        fill="white"
                    ></path>
                    <path
                        d="M315.6401367,188.2255859c1.3271484,2.1289062,3.6103516,3.2978516,5.9467773,3.2978516   c1.2641602,0,2.5444336-0.3427734,3.6967773-1.0605469c3.2802734-2.0458984,4.2817383-6.3632812,2.2363281-9.6435547   C313.3525391,158.0947266,285.9472656,143.9775391,256,143.9775391s-57.3525391,14.1171875-71.5200195,36.8417969   c-2.0454102,3.2802734-1.0439453,7.5976562,2.2363281,9.6435547c3.2807617,2.0439453,7.5991211,1.0439453,9.6435547-2.2373047   C207.9921875,169.5683594,230.8452148,157.9775391,256,157.9775391S304.0078125,169.5683594,315.6401367,188.2255859z"
                        transform="translate(-100.41910552978516,-40)"
                        fill="white"
                    ></path>
                </g>
            </g>
        </g>
    </g>
</svg>